<svg width="52" height="48" viewBox="0 0 52 48" fill="none" xmlns="http://www.w3.org/2000/svg">
<g filter="url(#filter0_d_219_220)">
<rect x="8" y="6" width="35.7647" height="32" rx="6" fill="#FF7979"/>
</g>
<g clip-path="url(#clip0_219_220)">
<path d="M33.5854 22.8155C33.2173 22.8155 32.9189 23.089 32.9189 23.4264V29.7041H29.2423V23.4264C29.2423 23.089 28.9439 22.8155 28.5758 22.8155H23.5656C23.1974 22.8155 22.8991 23.089 22.8991 23.4264V29.7041H19.2221V23.4264C19.2221 23.089 18.9237 22.8155 18.5556 22.8155C18.1874 22.8155 17.8891 23.089 17.8891 23.4264V30.3151C17.8891 30.6525 18.1874 30.9261 18.5556 30.9261H23.5656H28.5758H33.5854C33.9536 30.9261 34.2519 30.6525 34.2519 30.3151V23.4264C34.2519 23.089 33.9535 22.8155 33.5854 22.8155ZM24.2321 29.7041V24.0374H27.9093V29.7041H24.2321Z" fill="white"/>
<path d="M37.1694 22.9943L26.5414 13.2528C26.2812 13.0142 25.8591 13.0143 25.5988 13.2528L14.9717 22.9943C14.7114 23.2329 14.7114 23.6198 14.9717 23.8583C15.232 24.0969 15.654 24.0969 15.9143 23.8583L26.0701 14.5488L36.2269 23.8584C36.357 23.9777 36.5276 24.0373 36.6982 24.0373C36.8687 24.0373 37.0393 23.9777 37.1695 23.8583C37.4297 23.6198 37.4297 23.2329 37.1694 22.9943Z" fill="white"/>
</g>
<defs>
<filter id="filter0_d_219_220" x="0" y="0" width="51.7647" height="48" filterUnits="userSpaceOnUse" color-interpolation-filters="sRGB">
<feFlood flood-opacity="0" result="BackgroundImageFix"/>
<feColorMatrix in="SourceAlpha" type="matrix" values="0 0 0 0 0 0 0 0 0 0 0 0 0 0 0 0 0 0 127 0" result="hardAlpha"/>
<feOffset dy="2"/>
<feGaussianBlur stdDeviation="4"/>
<feComposite in2="hardAlpha" operator="out"/>
<feColorMatrix type="matrix" values="0 0 0 0 0.388235 0 0 0 0 0.388235 0 0 0 0 0.388235 0 0 0 0.2 0"/>
<feBlend mode="normal" in2="BackgroundImageFix" result="effect1_dropShadow_219_220"/>
<feBlend mode="normal" in="SourceGraphic" in2="effect1_dropShadow_219_220" result="shape"/>
</filter>
<clipPath id="clip0_219_220">
<rect width="22.5882" height="20.7059" fill="white" transform="translate(14.7764 11.647)"/>
</clipPath>
</defs>
</svg>
